<svg width="24" height="24" viewBox="0 0 24 24" fill="none" xmlns="http://www.w3.org/2000/svg">
<g clip-path="url(#clip0_301_646)">
<path d="M13.03 1.87L2.04 0.199996C1.53 0.119996 1.01 0.259996 0.62 0.589996C0.23 0.929996 0 1.42 0 1.93V23C0 23.55 0.45 24 1 24H4.25V18.75C4.25 17.78 5.03 17 6 17H8.5C9.47 17 10.25 17.78 10.25 18.75V24H14.5V3.6C14.5 2.74 13.88 2.01 13.03 1.87ZM5.5 14.75H4C3.586 14.75 3.25 14.414 3.25 14C3.25 13.586 3.586 13.25 4 13.25H5.5C5.914 13.25 6.25 13.586 6.25 14C6.25 14.414 5.914 14.75 5.5 14.75ZM5.5 11.75H4C3.586 11.75 3.25 11.414 3.25 11C3.25 10.586 3.586 10.25 4 10.25H5.5C5.914 10.25 6.25 10.586 6.25 11C6.25 11.414 5.914 11.75 5.5 11.75ZM5.5 8.75H4C3.586 8.75 3.25 8.414 3.25 8C3.25 7.586 3.586 7.25 4 7.25H5.5C5.914 7.25 6.25 7.586 6.25 8C6.25 8.414 5.914 8.75 5.5 8.75ZM5.5 5.75H4C3.586 5.75 3.25 5.414 3.25 5C3.25 4.586 3.586 4.25 4 4.25H5.5C5.914 4.25 6.25 4.586 6.25 5C6.25 5.414 5.914 5.75 5.5 5.75ZM10.5 14.75H9C8.586 14.75 8.25 14.414 8.25 14C8.25 13.586 8.586 13.25 9 13.25H10.5C10.914 13.25 11.25 13.586 11.25 14C11.25 14.414 10.914 14.75 10.5 14.75ZM10.5 11.75H9C8.586 11.75 8.25 11.414 8.25 11C8.25 10.586 8.586 10.25 9 10.25H10.5C10.914 10.25 11.25 10.586 11.25 11C11.25 11.414 10.914 11.75 10.5 11.75ZM10.5 8.75H9C8.586 8.75 8.25 8.414 8.25 8C8.25 7.586 8.586 7.25 9 7.25H10.5C10.914 7.25 11.25 7.586 11.25 8C11.25 8.414 10.914 8.75 10.5 8.75ZM10.5 5.75H9C8.586 5.75 8.25 5.414 8.25 5C8.25 4.586 8.586 4.25 9 4.25H10.5C10.914 4.25 11.25 4.586 11.25 5C11.25 5.414 10.914 5.75 10.5 5.75Z" fill="#EEEEEE"/>
<path d="M22.62 10.842L15.5 9.351V24H22.25C23.215 24 24 23.215 24 22.25V12.552C24 11.726 23.437 11.023 22.62 10.842ZM20.25 21H18.75C18.336 21 18 20.664 18 20.25C18 19.836 18.336 19.5 18.75 19.5H20.25C20.664 19.5 21 19.836 21 20.25C21 20.664 20.664 21 20.25 21ZM20.25 18H18.75C18.336 18 18 17.664 18 17.25C18 16.836 18.336 16.5 18.75 16.5H20.25C20.664 16.5 21 16.836 21 17.25C21 17.664 20.664 18 20.25 18ZM20.25 15H18.75C18.336 15 18 14.664 18 14.25C18 13.836 18.336 13.5 18.75 13.5H20.25C20.664 13.5 21 13.836 21 14.25C21 14.664 20.664 15 20.25 15Z" fill="#EEEEEE"/>
</g>
<defs>
<clipPath id="clip0_301_646">
<rect width="24" height="24" fill="white"/>
</clipPath>
</defs>
</svg>
