<svg width="24" height="24" viewBox="0 0 24 24" fill="none" xmlns="http://www.w3.org/2000/svg">
<g clip-path="url(#clip0_301_637)">
<path d="M9.24994 0H1.74994C0.784973 0 0 0.784973 0 1.74994V6.24994C0 7.21509 0.784973 8.00006 1.74994 8.00006H9.24994C10.2151 8.00006 11.0001 7.21509 11.0001 6.24994V1.74994C11.0001 0.784973 10.2151 0 9.24994 0Z" fill="#EEEEEE"/>
<path d="M9.24994 9.99994H1.74994C0.784973 9.99994 0 10.7849 0 11.7501V22.2501C0 23.215 0.784973 24 1.74994 24H9.24994C10.2151 24 11.0001 23.215 11.0001 22.2501V11.7501C11.0001 10.7849 10.2151 9.99994 9.24994 9.99994Z" fill="#EEEEEE"/>
<path d="M22.2501 15.9999H14.7501C13.785 15.9999 13 16.7849 13 17.7501V22.2501C13 23.215 13.785 24 14.7501 24H22.2501C23.2151 24 24.0001 23.215 24.0001 22.2501V17.7501C24.0001 16.7849 23.2151 15.9999 22.2501 15.9999Z" fill="#EEEEEE"/>
<path d="M22.2501 0H14.7501C13.785 0 13 0.784973 13 1.74994V12.2499C13 13.2151 13.785 14.0001 14.7501 14.0001H22.2501C23.2151 14.0001 24.0001 13.2151 24.0001 12.2499V1.74994C24.0001 0.784973 23.2151 0 22.2501 0Z" fill="#EEEEEE"/>
</g>
<defs>
<clipPath id="clip0_301_637">
<rect width="24" height="24" fill="white"/>
</clipPath>
</defs>
</svg>
