<svg width="24" height="24" viewBox="0 0 24 24" fill="none" xmlns="http://www.w3.org/2000/svg">
<g clip-path="url(#clip0_301_654)">
<path d="M20.6698 15.2437H11.1567L17.8821 21.9691C18.1795 22.2665 18.6719 22.2398 18.9308 21.9085C20.2662 20.199 21.1036 18.1789 21.3684 16.0282C21.4197 15.6109 21.0903 15.2437 20.6698 15.2437Z" fill="#EEEEEE"/>
<path d="M8.96217 15.0378C8.83031 14.906 8.7562 14.7271 8.7562 14.5406V5.89716C8.7562 5.46642 8.37187 5.13347 7.94662 5.20209C3.43809 5.92988 -0.0141129 9.85556 4.338e-05 14.5695C0.0156059 19.7543 4.24992 23.9868 9.43472 24C11.4575 24.0051 13.3848 23.3787 14.9923 22.2138C15.3412 21.9608 15.3784 21.454 15.0736 21.1493L8.96217 15.0378Z" fill="#EEEEEE"/>
<path d="M23.9965 13.0633C23.3009 6.18479 17.8153 0.69924 10.9368 0.0036149C10.5219 -0.0383382 10.1626 0.290302 10.1626 0.707256V13.8375H23.2928C23.7098 13.8375 24.0384 13.4782 23.9965 13.0633Z" fill="#EEEEEE"/>
</g>
<defs>
<clipPath id="clip0_301_654">
<rect width="24" height="24" fill="white"/>
</clipPath>
</defs>
</svg>
