<svg width="76" height="32" viewBox="0 0 76 32" fill="none" xmlns="http://www.w3.org/2000/svg">
<g clip-path="url(#clip0_301_613)">
<path d="M24.8039 0.172691C24.7117 0.0987393 24.604 0.0465727 24.4889 0.0200891C24.3737 -0.00639452 24.254 -0.00651034 24.1388 0.0197502C22.8868 0.316092 21.5976 0.424208 20.3137 0.340535C19.2971 0.246109 18.2719 0.352711 17.2965 0.65426C15.1004 1.36642 14.382 4.05191 14.189 5.0323L14.1663 5.04799C13.5081 5.49802 12.9562 6.08637 12.549 6.77191C12.143 6.08612 11.5921 5.49725 10.9349 5.04642L10.9122 5.03073C10.7192 4.04877 9.99843 1.36328 7.80471 0.651123C6.82808 0.350219 5.80174 0.24468 4.78431 0.340535C3.50043 0.424208 2.21123 0.316092 0.959216 0.0197502C0.844311 -0.00653532 0.72496 -0.00658393 0.610035 0.019608C0.495109 0.0458 0.387565 0.0975588 0.295397 0.171037C0.203229 0.244515 0.128808 0.337822 0.0776669 0.444022C0.0265254 0.550222 -2.13879e-05 0.666584 1.2929e-08 0.784456C0.00941178 2.76877 0.956863 6.61504 4.47765 6.99779C4.83573 7.0379 5.19575 7.05833 5.55608 7.05897C6.44298 7.09251 7.31943 6.85829 8.07137 6.38681L8.13725 6.34916C7.35261 5.55233 6.46187 4.86745 5.4902 4.31387C6.26277 4.31305 7.02555 4.48679 7.72157 4.8221C8.53225 5.27344 9.31059 5.78054 10.051 6.33975C10.5602 6.68745 10.9801 7.15048 11.2765 7.69114C11.573 8.23181 11.7375 8.83483 11.7569 9.45112C9.75567 9.65428 7.90903 10.6185 6.59862 12.1446C5.28821 13.6707 4.61421 15.6418 4.71592 17.6507C4.81762 19.6596 5.68727 21.5527 7.14512 22.9386C8.60296 24.3245 10.5375 25.0973 12.549 25.0973C14.5605 25.0973 16.4951 24.3245 17.9529 22.9386C19.4108 21.5527 20.2804 19.6596 20.3821 17.6507C20.4838 15.6418 19.8098 13.6707 18.4994 12.1446C17.189 10.6185 15.3424 9.65428 13.3412 9.45112C13.3605 8.83483 13.5251 8.23181 13.8215 7.69114C14.1179 7.15048 14.5378 6.68745 15.0471 6.33975C15.7874 5.78054 16.5658 5.27344 17.3765 4.8221C18.0725 4.48679 18.8353 4.31305 19.6078 4.31387C18.6359 4.86866 17.7452 5.55487 16.9608 6.35308L17.0267 6.39073C17.779 6.86084 18.6555 7.09368 19.542 7.05897C19.9023 7.05729 20.2624 7.03582 20.6204 6.99465C24.1412 6.61505 25.0886 2.76877 25.098 0.784456C25.098 0.666967 25.0715 0.550995 25.0206 0.445108C24.9697 0.33922 24.8956 0.246122 24.8039 0.172691Z" fill="url(#paint0_linear_301_613)"/>
</g>
<path d="M69.4602 25H65.1163L65.1163 13.6H63L63 10H65.1163L65.1163 8.15947C65.1163 7.16886 65.3125 6.23827 65.705 5.36773C66.1081 4.49719 66.6544 3.74171 67.3439 3.10131C68.0441 2.45091 68.8556 1.94059 69.7785 1.57036C70.7013 1.19012 71.6879 1 72.7381 1H76V5.08255H72.7381C72.2713 5.08255 71.8364 5.1626 71.4333 5.3227C71.0408 5.4728 70.696 5.68793 70.399 5.96811C70.1126 6.23827 69.8845 6.56348 69.7148 6.94372C69.5451 7.31395 69.4602 7.7192 69.4602 8.15947L69.4602 10H74.7619V13.6H69.4602L69.4602 25Z" fill="white"/>
<path d="M55.2298 25.098H46.2944V21.3333H55.0787C55.346 21.3333 55.829 21.2152 56.0199 21.0196C56.2108 20.8239 56.3336 20.3523 56.3336 20.0784C56.3336 19.7947 56.2108 19.2253 56.0199 19.1372C55.809 18.9107 55.346 18.8235 55.0787 18.8235L51.314 18.741C50.6363 18.741 49.3979 18.6347 49.118 18.5098C48.5261 18.2457 48.1512 18.1199 47.7121 17.6699C47.2729 17.2101 46.9245 16.6769 46.6667 16.0704C46.4185 15.4639 46.2944 15.0954 46.2944 14.4008C46.2944 13.7063 46.4185 13.0557 46.6667 12.4492C46.9245 11.8427 47.2729 11.3144 47.7121 10.8644C48.1512 10.4145 48.6667 10.0623 49.2586 9.80794C49.8504 9.54381 50.4853 9.41174 51.163 9.41174H60.0984V13.1764H51.163C50.8957 13.1764 50.5638 13.2945 50.3729 13.4902C50.1819 13.6858 50.0591 14.1269 50.0591 14.4008C50.0591 14.6845 50.1819 15.1671 50.3729 15.3725C50.5638 15.5682 51.0467 15.6863 51.314 15.6863H55.0787C55.747 15.6863 56.683 15.7652 57.2748 16C57.8667 16.225 58.2273 16.3231 58.6664 16.734C59.1055 17.1448 59.454 17.6388 59.7117 18.216C59.9695 18.7932 60.0984 19.4242 60.0984 20.1089C60.0984 20.8035 59.9695 21.454 59.7117 22.0605C59.454 22.6573 59.1055 23.1855 58.6664 23.6453C58.2273 24.0953 57.7118 24.4524 57.1199 24.7165C56.528 24.9708 55.898 25.098 55.2298 25.098Z" fill="white"/>
<path d="M38.3716 17.2489C38.3716 16.7329 38.2707 16.2353 38.0688 15.7561C37.8761 15.2677 37.61 14.8392 37.2704 14.4706C36.9309 14.0928 36.5317 13.7934 36.0729 13.5722C35.6232 13.3418 35.1414 13.2267 34.6276 13.2267C34.1137 13.2267 33.6273 13.3142 33.1685 13.4893C32.7188 13.6644 32.3242 13.9224 31.9847 14.2633C31.6543 14.6043 31.3928 15.0281 31.2001 15.5349C31.0074 16.0325 30.911 16.6039 30.911 17.2489C30.911 17.8663 31.0074 18.4238 31.2001 18.9214C31.3928 19.4097 31.6543 19.829 31.9847 20.1792C32.3242 20.5293 32.7188 20.8012 33.1685 20.9947C33.6273 21.179 34.1137 21.2711 34.6276 21.2711C35.1414 21.2711 35.6232 21.1605 36.0729 20.9394C36.5317 20.709 36.9309 20.4095 37.2704 20.0409C37.61 19.6631 37.8761 19.2347 38.0688 18.7555C38.2707 18.2671 38.3716 17.7649 38.3716 17.2489ZM42.157 23.192C42.157 24.2333 41.9597 26.485 41.5651 27.3973C41.1705 28.3095 40.6291 29.1066 39.9408 29.7885C39.2617 30.4704 38.4634 31.0094 37.5457 31.4057C36.6372 31.8019 35.6645 32 34.6276 32L32.7418 31.9724V28.1989L34.6 28.2266C35.1873 28.2266 35.6875 28.1483 36.1004 27.9916C36.5134 27.8442 36.8621 27.6368 37.1465 27.3696C37.431 27.1116 37.6558 26.8121 37.821 26.4712C37.9954 26.1302 38.133 24.4959 38.234 24.1181C38.0871 24.3577 37.8761 24.5558 37.6008 24.7124C37.3255 24.8599 37.0181 24.9797 36.6785 25.0718C36.3482 25.1732 35.9995 25.2423 35.6324 25.2791C35.2745 25.316 34.9396 25.3344 34.6276 25.3344C33.5906 25.3344 32.6133 25.1547 31.6956 24.7954C30.7871 24.436 29.9888 23.6485 29.3005 22.985C28.6215 22.3124 28.0846 21.4923 27.69 20.5247C27.2954 19.5572 27.0981 18.4652 27.0981 17.2489C27.0981 16.1339 27.2954 15.0972 27.69 14.1389C28.0846 13.1806 28.6215 12.3513 29.3005 11.6509C29.9888 10.9506 30.7871 10.4024 31.6956 10.0061C32.6133 9.60989 33.5906 9.41177 34.6276 9.41177C35.1047 9.41177 35.5773 9.47167 36.0453 9.59146C36.5134 9.71125 36.9676 9.87712 37.4081 10.0891C37.8485 10.301 38.2661 10.5498 38.6607 10.8354C39.0644 11.1211 39.4407 11.4298 39.7894 11.7615L41.2485 10.0061H42.157V23.192Z" fill="white"/>
<defs>
<linearGradient id="paint0_linear_301_613" x1="12.549" y1="0" x2="12.549" y2="25.0973" gradientUnits="userSpaceOnUse">
<stop stop-color="#28CCC2"/>
<stop offset="1" stop-color="#2887CC"/>
</linearGradient>
<clipPath id="clip0_301_613">
<rect width="25.098" height="25.098" fill="white"/>
</clipPath>
</defs>
</svg>
