<svg width="24" height="24" viewBox="0 0 24 24" fill="none" xmlns="http://www.w3.org/2000/svg">
<path d="M16.5 10.5C15.3133 10.5 14.1533 10.8519 13.1666 11.5112C12.1799 12.1705 11.4109 13.1075 10.9567 14.2039C10.5026 15.3003 10.3838 16.5067 10.6153 17.6705C10.8468 18.8344 11.4182 19.9035 12.2574 20.7426C13.0965 21.5818 14.1656 22.1532 15.3295 22.3847C16.4933 22.6162 17.6997 22.4974 18.7961 22.0433C19.8925 21.5892 20.8295 20.8201 21.4888 19.8334C22.1481 18.8467 22.5 17.6867 22.5 16.5C22.4982 14.9092 21.8655 13.3842 20.7407 12.2593C19.6158 11.1345 18.0908 10.5018 16.5 10.5ZM17.25 19.4618V19.5C17.25 19.6989 17.171 19.8897 17.0303 20.0303C16.8897 20.171 16.6989 20.25 16.5 20.25C16.3011 20.25 16.1103 20.171 15.9697 20.0303C15.829 19.8897 15.75 19.6989 15.75 19.5C15.5511 19.5 15.3603 19.421 15.2197 19.2803C15.079 19.1397 15 18.9489 15 18.75C15 18.5511 15.079 18.3603 15.2197 18.2197C15.3603 18.079 15.5511 18 15.75 18H16.875C16.9745 18 17.0698 17.9605 17.1402 17.8902C17.2105 17.8198 17.25 17.7245 17.25 17.625C17.25 17.5255 17.2105 17.4302 17.1402 17.3598C17.0698 17.2895 16.9745 17.25 16.875 17.25H16.125C15.6607 17.2496 15.213 17.0768 14.8687 16.7653C14.5244 16.4537 14.308 16.0255 14.2613 15.5635C14.2146 15.1015 14.341 14.6386 14.616 14.2645C14.8911 13.8903 15.2951 13.6316 15.75 13.5383V13.5C15.75 13.3011 15.829 13.1103 15.9697 12.9697C16.1103 12.829 16.3011 12.75 16.5 12.75C16.6989 12.75 16.8897 12.829 17.0303 12.9697C17.171 13.1103 17.25 13.3011 17.25 13.5C17.4489 13.5 17.6397 13.579 17.7803 13.7197C17.921 13.8603 18 14.0511 18 14.25C18 14.4489 17.921 14.6397 17.7803 14.7803C17.6397 14.921 17.4489 15 17.25 15H16.125C16.0255 15 15.9302 15.0395 15.8598 15.1098C15.7895 15.1802 15.75 15.2755 15.75 15.375C15.75 15.4745 15.7895 15.5698 15.8598 15.6402C15.9302 15.7105 16.0255 15.75 16.125 15.75H16.875C17.3393 15.7504 17.787 15.9232 18.1313 16.2347C18.4756 16.5463 18.692 16.9745 18.7387 17.4365C18.7854 17.8985 18.659 18.3614 18.384 18.7355C18.1089 19.1097 17.7049 19.3684 17.25 19.4618Z" fill="url(#paint0_linear_301_669)"/>
<path d="M10.6425 11.82C11.3439 10.9397 12.2349 10.229 13.249 9.74073C14.2632 9.25248 15.3744 8.99928 16.5 9C16.5825 9 16.665 9 16.74 9.0075C17.0785 8.30326 17.2529 7.53139 17.25 6.75C17.2503 5.76999 16.9762 4.80946 16.4589 3.97713C15.9416 3.14479 15.2016 2.47387 14.3227 2.04029C13.4438 1.60672 12.4611 1.4278 11.4858 1.52378C10.5105 1.61976 9.58155 1.98682 8.80405 2.5834C8.02655 3.17999 7.43155 3.98229 7.08639 4.8995C6.74123 5.81672 6.6597 6.81224 6.851 7.7734C7.04231 8.73456 7.49883 9.62298 8.1689 10.3381C8.83896 11.0533 9.69582 11.5666 10.6425 11.82Z" fill="url(#paint1_linear_301_669)"/>
<path d="M9.9975 12.765C7.70041 12.8909 5.539 13.8927 3.95825 15.5641C2.3775 17.2356 1.49771 19.4495 1.5 21.75H11.145C9.99963 20.5827 9.26752 19.0727 9.06034 17.4505C8.85316 15.8282 9.18228 14.1827 9.9975 12.765Z" fill="url(#paint2_linear_301_669)"/>
<defs>
<linearGradient id="paint0_linear_301_669" x1="10.5" y1="10.5" x2="22.7787" y2="10.7923" gradientUnits="userSpaceOnUse">
<stop stop-color="#28CCC2"/>
<stop offset="1" stop-color="#2887CC"/>
</linearGradient>
<linearGradient id="paint1_linear_301_669" x1="6.75" y1="1.49854" x2="17.4937" y2="1.75871" gradientUnits="userSpaceOnUse">
<stop stop-color="#28CCC2"/>
<stop offset="1" stop-color="#2887CC"/>
</linearGradient>
<linearGradient id="paint2_linear_301_669" x1="1.5" y1="12.765" x2="11.3682" y2="13.0172" gradientUnits="userSpaceOnUse">
<stop stop-color="#28CCC2"/>
<stop offset="1" stop-color="#2887CC"/>
</linearGradient>
</defs>
</svg>
