<svg width="24" height="24" viewBox="0 0 24 24" fill="none" xmlns="http://www.w3.org/2000/svg">
<g clip-path="url(#clip0_301_677)">
<path d="M4.55931 6.35209C3.16925 6.53633 1.80731 6.77356 0.490858 7.06188C0.204876 8.47679 0.0407876 9.89076 0 11.2968H4.28036C4.30145 9.64041 4.39428 7.9864 4.55931 6.35209Z" fill="#EEEEEE"/>
<path d="M4.27989 12.7032H0C0.0412564 14.1125 0.205345 15.5298 0.492733 16.948C1.80731 17.2353 3.16737 17.4726 4.55509 17.6568C4.391 16.0192 4.29911 14.3624 4.27989 12.7032Z" fill="#EEEEEE"/>
<path d="M0.844727 18.4609C1.15368 19.6353 1.54655 20.8092 2.02194 21.978C3.14055 22.4332 4.26385 22.8125 5.38762 23.1149C5.1143 21.8003 4.89114 20.459 4.71908 19.1008C3.40872 18.9348 2.1143 18.7215 0.844727 18.4609Z" fill="#EEEEEE"/>
<path d="M5.99192 17.8284C7.73876 18.0127 9.51841 18.1149 11.2967 18.1308V12.7032H5.69141C5.71203 14.4219 5.81377 16.1406 5.99192 17.8284Z" fill="#EEEEEE"/>
<path d="M6.90476 23.4773C8.37171 23.7825 9.83819 23.9573 11.2967 24V19.542C9.57753 19.527 7.85976 19.4346 6.16309 19.2649C6.35437 20.7056 6.60237 22.1163 6.90476 23.4773Z" fill="#EEEEEE"/>
<path d="M12.7031 24C14.0332 23.9611 15.3703 23.8125 16.7083 23.5546C17.0186 22.1688 17.2727 20.7304 17.4678 19.2607C15.8925 19.4196 14.2995 19.5115 12.7031 19.5368V24Z" fill="#EEEEEE"/>
<path d="M0.841797 5.54899C2.11418 5.28786 3.41095 5.07407 4.72412 4.90811C4.89806 3.54524 5.12309 2.19972 5.39923 0.881855C4.27124 1.18518 3.14466 1.5654 2.02183 2.02203C1.54503 3.19409 1.15122 4.37131 0.841797 5.54899Z" fill="#EEEEEE"/>
<path d="M6.16943 4.74355C7.86423 4.57431 9.57965 4.48195 11.297 4.46742V0C9.84266 0.0426629 8.37994 0.216596 6.91674 0.520394C6.61247 1.8842 6.36212 3.29864 6.16943 4.74355Z" fill="#EEEEEE"/>
<path d="M16.6961 0.443038C15.3623 0.186592 14.029 0.0384435 12.7031 0V4.47257C14.2971 4.49742 15.8888 4.58931 17.4622 4.74777C17.2652 3.27426 17.0093 1.83216 16.6961 0.443038Z" fill="#EEEEEE"/>
<path d="M23.1818 5.64041C22.8686 4.43225 22.4673 3.22456 21.9779 2.02203C20.7256 1.51242 19.4683 1.09845 18.2095 0.779652C18.4959 2.13174 18.728 3.51336 18.9066 4.91327C20.3553 5.09798 21.7842 5.34036 23.1818 5.64041Z" fill="#EEEEEE"/>
<path d="M5.69189 11.2968H11.2967V5.87857C9.51984 5.89451 7.74159 5.99672 5.99616 6.18097C5.81707 7.86545 5.7144 9.58087 5.69189 11.2968Z" fill="#EEEEEE"/>
<path d="M17.6347 6.18519C16.0107 6.01266 14.3571 5.91092 12.7031 5.8842V11.2968H17.9385C17.916 9.58228 17.8133 7.86826 17.6347 6.18519Z" fill="#EEEEEE"/>
<path d="M19.3503 11.2968H24.0001C23.9602 9.92264 23.8027 8.54102 23.5289 7.15846C22.0929 6.82935 20.5997 6.56165 19.0723 6.35771C19.2364 7.99015 19.3292 9.64229 19.3503 11.2968Z" fill="#EEEEEE"/>
<path d="M12.7031 18.1252C14.3585 18.0984 16.0135 17.9967 17.6389 17.8237C17.817 16.1374 17.9183 14.4201 17.9394 12.7032H12.7031V18.1252Z" fill="#EEEEEE"/>
<path d="M18.2212 23.2175C19.4758 22.8992 20.7294 22.4857 21.9779 21.978C22.4659 20.7787 22.8663 19.5743 23.179 18.3694C21.7842 18.669 20.3581 18.9109 18.9122 19.0956C18.735 20.4913 18.5048 21.8687 18.2212 23.2175Z" fill="#EEEEEE"/>
<path d="M19.0767 17.6512C20.6017 17.4473 22.0931 17.18 23.5267 16.8518C23.8019 15.466 23.9599 14.0806 24.0002 12.7032H19.3509C19.3317 14.3605 19.2398 16.0155 19.0767 17.6512Z" fill="#EEEEEE"/>
</g>
<defs>
<clipPath id="clip0_301_677">
<rect width="24" height="24" fill="white"/>
</clipPath>
</defs>
</svg>
