<svg width="32" height="32" viewBox="0 0 32 32" fill="none" xmlns="http://www.w3.org/2000/svg">
<rect x="0.5" y="0.5" width="31" height="31" rx="10.5" fill="#F9F9F9" stroke="#EEEEEE"/>
<path fill-rule="evenodd" clip-rule="evenodd" d="M22.1667 14.7144C22.3877 14.7144 22.5997 14.7972 22.7559 14.9445C22.9122 15.0918 23 15.2917 23 15.5C23 15.7083 22.9122 15.9082 22.7559 16.0555C22.5997 16.2028 22.3877 16.2856 22.1667 16.2856H10.8462L14.4242 19.6572C14.5806 19.8048 14.6685 20.0048 14.6685 20.2134C14.6685 20.422 14.5806 20.6221 14.4242 20.7696C14.2677 20.9171 14.0555 21 13.8342 21C13.613 21 13.4008 20.9171 13.2443 20.7696L8.2448 16.0562C8.1672 15.9832 8.10564 15.8965 8.06363 15.8011C8.02162 15.7056 8 15.6033 8 15.5C8 15.3967 8.02162 15.2944 8.06363 15.1989C8.10564 15.1035 8.1672 15.0168 8.2448 14.9438L13.2443 10.2304C13.4008 10.0829 13.613 10 13.8342 10C14.0555 10 14.2677 10.0829 14.4242 10.2304C14.5806 10.3779 14.6685 10.578 14.6685 10.7866C14.6685 10.9952 14.5806 11.1952 14.4242 11.3427L10.8462 14.7144H22.1667Z" fill="url(#paint0_linear_1_139)"/>
<defs>
<linearGradient id="paint0_linear_1_139" x1="8" y1="21" x2="8.19653" y2="9.74159" gradientUnits="userSpaceOnUse">
<stop stop-color="#28CCC2"/>
<stop offset="1" stop-color="#2887CC"/>
</linearGradient>
</defs>
</svg>
